<?xml version="1.0" encoding="utf-8"?>
<!-- Generator: Adobe Illustrator 26.0.3, SVG Export Plug-In . SVG Version: 6.00 Build 0)  -->
<svg version="1.1" id="Layer_1" xmlns="http://www.w3.org/2000/svg" xmlns:xlink="http://www.w3.org/1999/xlink" x="0px" y="0px"
	 viewBox="0 0 33.79 21.79" style="enable-background:new 0 0 33.79 21.79;" xml:space="preserve">
<style type="text/css">
	.st0{fill:#3D90FF;}
</style>
<g>
	<path d="M31.53,8.45L31.53,8.45L31.53,8.45c-0.19,0.28-0.25,0.62-0.31,0.97c-0.07,0.43-0.14,0.84-0.29,1.25
		c-0.18,0.48-0.49,1.02-1.02,1.45c-0.55-1.5-1.36-2.88-2.37-4.08c0.64-0.25,1.26-0.25,1.77-0.17c0.43,0.07,0.82,0.21,1.23,0.37
		C30.86,8.36,31.19,8.47,31.53,8.45L31.53,8.45z M25.34,2.26L25.34,2.26L25.34,2.26c-0.02,0.34,0.09,0.66,0.22,1
		c0.15,0.41,0.3,0.8,0.37,1.23c0.08,0.51,0.09,1.14-0.17,1.77c-1.21-1.01-2.59-1.81-4.09-2.36c0.42-0.54,0.96-0.85,1.45-1.03
		c0.4-0.15,0.82-0.23,1.25-0.29C24.72,2.52,25.06,2.45,25.34,2.26L25.34,2.26z M30.55,14.54c0.67,0.1,1.21,0.41,1.61,0.74
		c0.33,0.27,0.6,0.59,0.88,0.93c0.22,0.28,0.45,0.54,0.75,0.69h-3.03C30.75,16.09,30.68,15.3,30.55,14.54L30.55,14.54z M8.45,2.26
		L8.45,2.26L8.45,2.26c0.28,0.19,0.62,0.25,0.97,0.31c0.43,0.07,0.84,0.14,1.24,0.29c0.49,0.18,1.03,0.49,1.45,1.03
		c-1.5,0.55-2.88,1.36-4.09,2.36C7.77,5.62,7.78,5,7.86,4.48c0.07-0.43,0.21-0.82,0.37-1.23C8.36,2.93,8.47,2.6,8.45,2.26L8.45,2.26
		z M2.26,8.45L2.26,8.45c0.34,0.02,0.66-0.09,1-0.22c0.41-0.15,0.8-0.3,1.23-0.37C5,7.78,5.62,7.77,6.26,8.03
		c-1.01,1.2-1.81,2.58-2.37,4.08c-0.53-0.42-0.84-0.96-1.02-1.45c-0.15-0.4-0.22-0.82-0.29-1.25C2.52,9.07,2.45,8.73,2.26,8.45
		L2.26,8.45z M0,16.89c0.3-0.15,0.53-0.41,0.75-0.69c0.27-0.34,0.54-0.66,0.88-0.93c0.4-0.33,0.93-0.64,1.61-0.74
		c-0.13,0.77-0.2,1.55-0.2,2.36H0z M16.89,0L16.89,0L16.89,0c0.15,0.3,0.41,0.53,0.69,0.75c0.34,0.27,0.66,0.54,0.93,0.88
		c0.33,0.4,0.65,0.94,0.74,1.62c-0.77-0.13-1.56-0.2-2.36-0.2c-0.8,0-1.59,0.07-2.36,0.2c0.1-0.68,0.41-1.22,0.74-1.62
		c0.27-0.33,0.59-0.6,0.93-0.88C16.49,0.53,16.74,0.3,16.89,0L16.89,0z M16.89,0"/>
	<path d="M14.08,16.9l1.04,0c0.14-0.88-0.13-1.56-1.02-1.4c-0.75,0.14-1.56,0.88-2.04,1.4l1.37-0.01c0.15-0.1,0.45-0.22,0.58-0.13
		C14.05,16.79,14.07,16.84,14.08,16.9L14.08,16.9z M14.08,16.9"/>
	<path d="M18.77,16.9h1.3c0.06-1.54-0.19-3.12-0.9-4.5c-0.65-1.25-1.72-2.1-3.11-2.3c-2.03-0.3-4.08,0.56-5.81,1.79
		c-1.89,1.34-3.44,3.16-4.8,5.01l1.72,0c1.55-2.19,5.11-5.52,7.72-5.54c0.83-0.01,1.68,0.19,2.31,0.75
		c0.45,0.41,1.01,1.19,0.98,1.83c-0.02,0.38-0.35,0.5-0.67,0.38c-0.25-0.09-0.43-0.32-0.6-0.56c-0.57-0.78-1.46-1.16-2.43-1.03
		c-1.16,0.16-2.6,1.06-3.53,1.88c-0.8,0.71-1.54,1.48-2.23,2.3h1.85c0.68-0.82,1.39-1.51,2.31-2.09c0.29-0.18,0.65-0.37,1.03-0.5
		c0.95-0.33,1.9-0.24,2.31,0.94c0.16,0.47,0.19,0.87,0.14,1.62v0.03h1.26l0-0.04c0-0.41-0.01-0.69,0.03-1.09
		c0.03-0.35,0.14-0.71,0.46-0.75C18.79,14.87,18.75,16.4,18.77,16.9L18.77,16.9z M18.77,16.9"/>
	<path d="M21.44,16.9h1.31c0.06-1.43-0.06-3.11-0.52-4.59c-0.09-0.29-0.2-0.57-0.31-0.84c-0.28-0.64-0.65-1.21-1.1-1.75
		c-0.5-0.59-1.09-1.13-1.76-1.54c-0.2-0.12-0.4-0.24-0.61-0.34v0c-0.21-0.1-0.43-0.19-0.65-0.27h0c-2.55-0.91-5.14-0.26-7.31,0.92
		C10.06,8.7,9.65,8.95,9.26,9.22c-0.39,0.26-0.76,0.54-1.1,0.82h0l0,0c-0.41,0.33-0.93,0.79-1.44,1.33c-0.1,0.11-0.2,0.21-0.3,0.32
		c-0.26,0.29-0.65,0.7-0.54,1.13c0.09,0.34,0.53,0.24,0.68,0.12c0.23-0.12,0.49-0.32,0.7-0.51c0.29-0.25,0.57-0.52,0.87-0.77
		c1.18-1.02,2.41-1.81,3.63-2.35C12.03,9.19,12.3,9.09,12.56,9c0.26-0.09,0.52-0.17,0.78-0.24l0,0c2.26-0.59,4.71-0.21,6.28,1.63
		C21.14,12.16,21.41,14.54,21.44,16.9L21.44,16.9z M5.16,14.89c0.14-0.13,0.28-0.3,0.43-0.49c0.21-0.27,0.23-0.52,0.15-0.71
		c-0.03-0.07-0.08-0.13-0.13-0.18c-0.05-0.05-0.12-0.08-0.19-0.09c-0.17-0.04-0.37,0.02-0.55,0.23c-0.2,0.24-0.47,0.65-0.52,1.01
		c-0.01,0.07-0.01,0.13-0.01,0.19c0.01,0.06,0.02,0.12,0.05,0.17l0,0c0.04,0.08,0.12,0.13,0.22,0.13c0.02,0,0.04,0,0.07,0
		c0.02,0,0.05-0.01,0.08-0.01v0l0,0C4.89,15.11,5.02,15.02,5.16,14.89L5.16,14.89z M5.16,14.89"/>
	<path d="M24.72,16.9L24.72,16.9l0.01,0c0.14,0.01,0.38-0.06,0.51-0.29c0.03-0.05,0.05-0.1,0.07-0.16c0.02-0.06,0.03-0.13,0.04-0.21
		l0-0.02c0.1-3.64-1.01-6.66-2.91-8.71c-0.37-0.4-0.77-0.76-1.19-1.08c-0.42-0.32-0.87-0.61-1.35-0.85h0l-0.01,0l0,0
		c-1.59-0.81-3.4-1.13-5.17-0.98c-0.35,0.03-0.69,0.08-1.03,0.14c-0.34,0.06-0.68,0.15-1.01,0.24l0,0C10.86,5.53,9.16,6.6,7.78,8
		C7.51,8.28,7.25,8.56,7.01,8.86c-0.12,0.15-0.24,0.3-0.35,0.45c0.97-0.84,2.01-1.57,3.1-2.15C10,7.02,10.25,6.9,10.49,6.79
		c0.25-0.11,0.5-0.22,0.75-0.32l0,0l0,0c0.96-0.37,1.91-0.61,2.86-0.72c0.95-0.11,1.9-0.08,2.86,0.07c0.69,0.11,1.35,0.29,1.96,0.54
		c0.12,0.05,0.23,0.1,0.34,0.16c0.11,0.05,0.22,0.11,0.33,0.17l0,0v0c2.12,1.16,3.6,3.55,4.24,6.24c0.13,0.52,0.22,1.06,0.28,1.6
		c0.06,0.54,0.09,1.09,0.09,1.63l0,0.03c0.01,0.29,0.11,0.54,0.28,0.65c0.03,0.02,0.07,0.04,0.1,0.05
		C24.63,16.89,24.67,16.9,24.72,16.9L24.72,16.9z M24.72,16.9"/>
	<path d="M20.92,4.75c5.1,1.69,8.79,6.48,8.81,12.14h-2.52C27.38,11.95,25.22,7.49,20.92,4.75L20.92,4.75z M20.92,4.75"/>
	<path class="st0" d="M6.11,20.87H5.09l-0.25,0.89H4.02l1.08-3.41h1.03l1.11,3.41H6.39L6.11,20.87z M5.21,20.29h0.78
		c-0.21-0.67-0.34-1.12-0.4-1.37H5.58l-0.16,0.65L5.21,20.29z M9.86,20.87H8.84l-0.25,0.89H7.77l1.08-3.41h1.03l1.11,3.41h-0.85
		L9.86,20.87z M8.96,20.29h0.78c-0.21-0.67-0.34-1.12-0.4-1.37H9.33l-0.16,0.65L8.96,20.29z M11.77,21.74v-3.35
		c0.34-0.05,0.7-0.08,1.08-0.08c0.73,0,1.25,0.15,1.56,0.46c0.32,0.3,0.47,0.7,0.47,1.19c0,0.58-0.18,1.03-0.54,1.35
		c-0.36,0.32-0.91,0.48-1.66,0.48C12.33,21.79,12.03,21.77,11.77,21.74L11.77,21.74z M12.55,18.95v2.22
		c0.04,0.01,0.14,0.02,0.28,0.02c0.39,0,0.69-0.1,0.9-0.31c0.21-0.2,0.32-0.5,0.32-0.88c0-0.35-0.1-0.62-0.29-0.8
		c-0.19-0.18-0.48-0.28-0.84-0.28C12.77,18.92,12.65,18.93,12.55,18.95L12.55,18.95z M15.72,18.35h0.78v1.31h1.34v-1.31h0.78v3.41
		h-0.78v-1.42h-1.34v1.42h-0.78V18.35z M21.47,20.87h-1.02l-0.25,0.89h-0.81l1.08-3.41h1.03l1.11,3.41h-0.85L21.47,20.87z
		 M20.57,20.29h0.78c-0.21-0.67-0.34-1.12-0.4-1.37h-0.01l-0.16,0.65L20.57,20.29z M25.22,20.87H24.2l-0.25,0.89h-0.81l1.08-3.41
		h1.03l1.11,3.41H25.5L25.22,20.87z M24.32,20.29h0.78c-0.21-0.67-0.34-1.12-0.4-1.37h-0.01l-0.16,0.65L24.32,20.29z M27.13,21.75
		v-3.36c0.29-0.05,0.64-0.08,1.06-0.08c0.52,0,0.89,0.09,1.11,0.26c0.23,0.17,0.34,0.41,0.34,0.73c0,0.19-0.06,0.36-0.17,0.51
		c-0.11,0.15-0.26,0.26-0.44,0.32v0.02c0.21,0.08,0.37,0.29,0.46,0.63c0.17,0.61,0.27,0.93,0.28,0.97h-0.8
		c-0.07-0.13-0.15-0.39-0.24-0.79c-0.05-0.2-0.11-0.34-0.19-0.42c-0.08-0.08-0.21-0.12-0.39-0.12H27.9v1.34H27.13z M27.9,18.92v0.94
		h0.32c0.2,0,0.35-0.04,0.46-0.13c0.11-0.09,0.17-0.21,0.17-0.36c0-0.15-0.05-0.27-0.15-0.35c-0.1-0.08-0.25-0.12-0.43-0.12
		C28.09,18.89,27.96,18.9,27.9,18.92L27.9,18.92z M27.9,18.92"/>
</g>
</svg>
