<svg id="Group_68" data-name="Group 68" xmlns="http://www.w3.org/2000/svg" width="24" height="24" viewBox="0 0 24 24">
  <g id="Group_67" data-name="Group 67" transform="translate(6.493 9.126)">
    <path id="Path_206" data-name="Path 206" d="M2349.971,1485.757a.75.75,0,0,1-.53-1.28l4.756-4.756a.75.75,0,0,1,1.06,1.061l-4.756,4.756A.747.747,0,0,1,2349.971,1485.757Z" transform="translate(-2344.477 -1479.501)" fill="#52616b"/>
    <path id="Path_207" data-name="Path 207" d="M2335.74,1485.8a.747.747,0,0,1-.53-.22l-4.744-4.744a.75.75,0,1,1,1.061-1.061l4.744,4.744a.75.75,0,0,1-.53,1.28Z" transform="translate(-2330.246 -1479.54)" fill="#52616b"/>
  </g>
  <rect id="Rectangle_33" data-name="Rectangle 33" width="24" height="24" fill="none"/>
</svg>
