<svg xmlns="http://www.w3.org/2000/svg" width="24" height="24" viewBox="0 0 24 24">
  <g id="Group_55" data-name="Group 55" transform="translate(-1536.272 -1443)">
    <g id="Group_54" data-name="Group 54" transform="translate(1543.704 1446.605)">
      <path id="Path_199" data-name="Path 199" d="M1574.387,1497.016a.748.748,0,0,1-.531-.22l-7.635-7.635a.75.75,0,0,1,1.061-1.06l7.635,7.635a.75.75,0,0,1-.53,1.28Z" transform="translate(-1566.002 -1480.266)" fill="#1a1818"/>
      <path id="Path_200" data-name="Path 200" d="M1566.752,1466.537a.75.75,0,0,1-.531-1.28l7.615-7.615a.75.75,0,1,1,1.061,1.06l-7.615,7.615A.748.748,0,0,1,1566.752,1466.537Z" transform="translate(-1566.002 -1457.422)" fill="#1a1818"/>
    </g>
    <rect id="Rectangle_27" data-name="Rectangle 27" width="24" height="24" transform="translate(1536.272 1443)" fill="none"/>
  </g>
</svg>
