<svg id="icon" xmlns="http://www.w3.org/2000/svg" width="24" height="24" viewBox="0 0 24 24">
  <rect id="Rectangle_251" data-name="Rectangle 251" width="24" height="24" fill="none"/>
  <g id="noun_credit_cards_2372002" data-name="noun_credit cards_2372002" transform="translate(4 7)">
    <g id="Group_973" data-name="Group 973" transform="translate(0 0)">
      <path id="Path_200" data-name="Path 200" d="M1.26,0H14.74A1.262,1.262,0,0,1,16,1.26V9.472a1.262,1.262,0,0,1-1.26,1.26H1.26A1.262,1.262,0,0,1,0,9.472V1.26A1.262,1.262,0,0,1,1.26,0Zm9.223,4.952h3.284a.388.388,0,0,1,.388.388V7.427a.388.388,0,0,1-.388.388H10.482a.388.388,0,0,1-.388-.388V5.34A.388.388,0,0,1,10.482,4.952Zm2.9.776H10.87V7.039h2.508ZM.776,2.519H15.224V1.26A.486.486,0,0,0,14.74.776H1.26a.486.486,0,0,0-.484.484V2.519Zm14.448.939H.776V9.472a.486.486,0,0,0,.484.484H14.74a.486.486,0,0,0,.484-.484V3.458Z" transform="translate(0 0)"/>
    </g>
  </g>
</svg>
