<svg xmlns="http://www.w3.org/2000/svg" width="24" height="24" viewBox="0 0 24 24">
  <g id="Group_7771" data-name="Group 7771" transform="translate(-1344.272 -6243)">
    <g id="Group_7770" data-name="Group 7770" transform="translate(1345.772 6244.764)">
      <g id="Group_7769" data-name="Group 7769">
        <path id="Path_22795" data-name="Path 22795" d="M1367.844,6264.852H1357.63a.74.74,0,0,1-.274-.052.749.749,0,0,1-.482-.581l-2.126-12.663h-3.726a.75.75,0,0,1,0-1.5h4.361a.75.75,0,0,1,.74.626l.574,3.42h12.725a1.838,1.838,0,0,1,1.484.741,1.813,1.813,0,0,1,.3,1.583l-1.573,7.053c0,.017-.008.033-.012.049A1.86,1.86,0,0,1,1367.844,6264.852Zm-9.594-1.5h9.594a.352.352,0,0,0,.332-.229l1.57-7.043c0-.016.008-.032.012-.048a.321.321,0,0,0-.053-.289.345.345,0,0,0-.283-.14h-12.473Zm10.651-.034h0Z" transform="translate(-1350.272 -6250.057)" fill="#333"/>
      </g>
      <path id="Path_22796" data-name="Path 22796" d="M1383.706,6319.086a1.671,1.671,0,1,1-1.671-1.67,1.67,1.67,0,0,1,1.671,1.67" transform="translate(-1372.842 -6300.576)" fill="#333"/>
      <path id="Path_22797" data-name="Path 22797" d="M1412.317,6319.086a1.67,1.67,0,1,1-1.67-1.67,1.67,1.67,0,0,1,1.67,1.67" transform="translate(-1394.3 -6300.576)" fill="#333"/>
    </g>
    <rect id="Rectangle_2180" data-name="Rectangle 2180" width="24" height="24" transform="translate(1344.272 6243)" fill="none"/>
  </g>
</svg>
