<svg xmlns="http://www.w3.org/2000/svg" width="24" height="24" viewBox="0 0 24 24">
  <g id="Group_7887" data-name="Group 7887" transform="translate(-4 -4)">
    <rect id="Rectangle_2207" data-name="Rectangle 2207" width="24" height="24" rx="4" transform="translate(4 4)" fill="#e8f9fd"/>
    <path id="Path_23086" data-name="Path 23086" d="M9,12a3,3,0,0,1,3-3H22.5a3,3,0,0,1,3,3V22.5a3,3,0,0,1-3,3H12a3,3,0,0,1-3-3Zm3-1.5H22.5A1.5,1.5,0,0,1,24,12V22.5A1.5,1.5,0,0,1,22.5,24H12a1.5,1.5,0,0,1-1.5-1.5V12A1.5,1.5,0,0,1,12,10.5Z" transform="translate(-1.25 -1.25)" fill="#22c0e7"/>
    <path id="Path_23087" data-name="Path 23087" d="M16.1,21.4a.375.375,0,0,1-.53,0l-3.637-3.637a.375.375,0,0,1,0-.529l.646-.651a.375.375,0,0,1,.531,0l2.46,2.46a.375.375,0,0,0,.53,0l5.794-5.794a.375.375,0,0,1,.531,0l.647.651a.375.375,0,0,1,0,.529ZM23.333,10H11.667A1.661,1.661,0,0,0,10,11.667V23.333A1.667,1.667,0,0,0,11.667,25H23.333A1.667,1.667,0,0,0,25,23.333V11.667A1.666,1.666,0,0,0,23.333,10Z" transform="translate(-1.5 -1.5)" fill="#22c0e7"/>
    <path id="Path_23088" data-name="Path 23088" d="M16.1,21.4a.375.375,0,0,1-.53,0l-3.637-3.637a.375.375,0,0,1,0-.529l.646-.651a.375.375,0,0,1,.531,0l2.46,2.46a.375.375,0,0,0,.53,0l5.794-5.794a.375.375,0,0,1,.531,0l.647.651a.375.375,0,0,1,0,.529Z" transform="translate(-1.5 -1.54)" fill="#fff"/>
  </g>
</svg>
