<?xml version="1.0" encoding="utf-8"?>
<!-- Generator: Adobe Illustrator 26.0.3, SVG Export Plug-In . SVG Version: 6.00 Build 0)  -->
<svg version="1.1" id="Layer_1" xmlns="http://www.w3.org/2000/svg" xmlns:xlink="http://www.w3.org/1999/xlink" x="0px" y="0px"
	 viewBox="0 0 12.4 7.28" style="enable-background:new 0 0 12.4 7.28;" xml:space="preserve">
<style type="text/css">
	.st0{fill:#3D90FF;}
</style>
<path class="st0" d="M6.23,2.68c1.36,1.36,2.68,2.68,4.01,4C10.34,6.79,10.45,6.9,10.57,7c0.47,0.39,1.09,0.37,1.51-0.05
	c0.41-0.41,0.44-1.04,0.05-1.5c-0.3-0.34-0.63-0.64-0.95-0.96C9.82,3.16,8.48,1.82,7.13,0.48c-0.64-0.64-1.2-0.64-1.84,0
	C3.68,2.07,2.07,3.67,0.47,5.26C-0.1,5.84-0.15,6.47,0.33,6.95c0.48,0.47,1.14,0.43,1.7-0.12c1.27-1.25,2.52-2.51,3.79-3.76
	C5.93,2.95,6.06,2.84,6.23,2.68z"/>
</svg>
