<?xml version="1.0" encoding="utf-8"?>
<!-- Generator: Adobe Illustrator 26.0.3, SVG Export Plug-In . SVG Version: 6.00 Build 0)  -->
<svg version="1.1" id="Layer_1" xmlns="http://www.w3.org/2000/svg" xmlns:xlink="http://www.w3.org/1999/xlink" x="0px" y="0px"
	 viewBox="0 0 12.4 7.28" style="enable-background:new 0 0 12.4 7.28;" xml:space="preserve">
<style type="text/css">
	.st0{fill:#3D90FF;}
</style>
<path class="st0" d="M6.23,4.6c1.36-1.36,2.68-2.68,4.01-4c0.11-0.11,0.22-0.23,0.34-0.32c0.47-0.39,1.09-0.37,1.51,0.05
	c0.41,0.41,0.44,1.04,0.05,1.5c-0.3,0.34-0.63,0.64-0.95,0.96C9.82,4.12,8.48,5.46,7.13,6.8c-0.64,0.64-1.2,0.64-1.84,0
	C3.68,5.21,2.07,3.61,0.47,2.01C-0.1,1.44-0.15,0.81,0.33,0.33C0.8-0.14,1.47-0.1,2.03,0.45C3.29,1.7,4.55,2.96,5.81,4.21
	C5.93,4.33,6.06,4.44,6.23,4.6z"/>
</svg>
