<?xml version="1.0" encoding="utf-8"?>
<!-- Generator: Adobe Illustrator 26.0.3, SVG Export Plug-In . SVG Version: 6.00 Build 0)  -->
<svg version="1.1" id="Layer_1" xmlns="http://www.w3.org/2000/svg" xmlns:xlink="http://www.w3.org/1999/xlink" x="0px" y="0px"
	 viewBox="0 0 61 61" style="enable-background:new 0 0 61 61;" xml:space="preserve">
<style type="text/css">
	.st0{fill:#39B54A;}
	.st1{fill:url(#SVGID_1_);}
	.st2{fill:#F7931E;}
	.st3{fill:#FFFFFF;}
	.st4{fill:#A3A3A3;}
	.st5{fill:#949494;}
	.st6{fill:url(#SVGID_00000057114608313807480610000006915079505347478174_);}
	.st7{fill:#828282;}
	.st8{fill:#0087EC;}
	.st9{fill:#FCFCFC;}
	.st10{fill:url(#SVGID_00000180324560877942445890000006375736408621141695_);}
	.st11{fill:url(#SVGID_00000032646911660514214630000011204477035520521385_);}
	.st12{fill:url(#SVGID_00000011017101253101611160000015977070844431197102_);}
	.st13{fill:url(#SVGID_00000023280321166828425080000009657577263310654878_);}
	.st14{fill:url(#SVGID_00000039834484510760511510000013604944653675599027_);}
	.st15{fill:url(#SVGID_00000174564126695320626750000009100631713184122001_);}
	.st16{opacity:0.7;}
	.st17{fill:#999999;}
	.st18{fill:#CC99FF;}
	.st19{fill:#CC66FF;}
	.st20{fill:url(#SVGID_00000038390572574529453900000004823174817978163626_);}
	.st21{fill:#008EEF;}
	.st22{fill:#C7B299;}
	.st23{fill:#0071BC;}
	.st24{fill:url(#SVGID_00000051365532515611704350000005837805733701733521_);}
	.st25{opacity:0.5;fill:#009245;}
</style>
<path d="M14.24,61c-0.35-0.31-0.73-0.6-1.06-0.93c-4.16-4.18-8.31-8.36-12.46-12.55c-0.89-0.9-0.89-1.42-0.02-2.3
	c1.72-1.72,3.44-3.44,5.15-5.17c0.84-0.85,1.81-1.3,3.02-1.25c0.18,0.01,0.46-0.13,0.55-0.29c3.94-6.92,12.56-8.61,18.75-6.23
	c0.3,0.12,0.65,0.17,0.98,0.17c4.05,0.01,8.11,0.03,12.16,0c1.65-0.01,3.08,0.44,4.38,1.95c0.12-0.24,0.17-0.47,0.32-0.62
	c2.25-2.33,4.51-4.66,6.78-6.98c2.24-2.28,6.07-1.73,7.57,1.09c0.83,1.55,0.56,3.96-0.63,5.4c-2.19,2.63-4.39,5.25-6.58,7.87
	c-1.13,1.35-2.27,2.69-3.38,4.05c-2.14,2.63-4.94,3.88-8.29,3.9c-5.12,0.03-10.24,0.05-15.37-0.01c-1.76-0.02-2.85,0.97-3.92,2.1
	c-0.08,0.09-0.08,0.29-0.05,0.43c0.27,1.39-0.1,2.57-1.12,3.56c-1.8,1.75-3.58,3.53-5.37,5.28c-0.21,0.2-0.46,0.37-0.69,0.55
	C14.72,61,14.48,61,14.24,61z M20.66,49.29c0.11-0.09,0.25-0.2,0.37-0.33c1.49-1.65,3.34-2.29,5.56-2.26
	c4.9,0.08,9.81,0.02,14.71,0.02c2.36,0,4.53-0.65,6.09-2.45c3.6-4.16,7.08-8.41,10.6-12.63c0.86-1.03,0.72-2.45-0.24-3.31
	c-0.96-0.85-2.38-0.79-3.31,0.17c-2.53,2.59-5.05,5.19-7.56,7.79c-0.13,0.14-0.25,0.36-0.25,0.55c-0.03,3.17-1.99,5.12-5.17,5.13
	c-2.95,0-5.89,0-8.84,0c-1.07,0-1.64-0.42-1.63-1.21c0.01-0.78,0.56-1.18,1.65-1.18c2.95,0,5.89,0,8.84,0c0.3,0,0.6-0.01,0.89-0.06
	c1.23-0.23,2.07-1.47,1.85-2.69c-0.23-1.28-1.17-2-2.67-2c-4.23-0.01-8.46,0-12.69-0.01c-0.42,0-0.87-0.07-1.27-0.22
	c-3.68-1.41-7.32-1.27-10.89,0.33c-2.36,1.06-4.12,2.81-5.32,5.05C14.47,43.1,17.56,46.18,20.66,49.29z M14.88,58.15
	c1.44-1.51,2.95-3.1,4.47-4.69c0.68-0.7,0.69-1.31,0-2c-3.26-3.26-6.52-6.52-9.78-9.77c-0.69-0.69-1.29-0.68-2,0.02
	c-1.47,1.47-2.93,2.94-4.4,4.41c-0.08,0.08-0.14,0.17-0.27,0.32C6.85,50.29,10.76,54.12,14.88,58.15z"/>
<path class="st21" d="M35.5,26.26c-7.24,0.01-13.09-5.84-13.08-13.08c0.01-7.2,5.86-13.05,13.05-13.06
	c7.22-0.01,13.09,5.86,13.08,13.09C48.54,20.42,42.71,26.25,35.5,26.26z M35.48,23.88c5.9,0,10.68-4.76,10.69-10.66
	C46.19,7.31,41.4,2.5,35.49,2.5c-5.89,0-10.68,4.78-10.69,10.66C24.78,19.09,29.56,23.88,35.48,23.88z"/>
<path class="st22" d="M20.66,49.29c-3.1-3.11-6.18-6.2-9.3-9.32c1.19-2.24,2.95-3.99,5.32-5.05c3.57-1.6,7.21-1.74,10.89-0.33
	c0.39,0.15,0.84,0.22,1.27,0.22c4.23,0.02,8.46,0.01,12.69,0.01c1.49,0,2.44,0.72,2.67,2c0.22,1.23-0.62,2.46-1.85,2.69
	c-0.29,0.05-0.59,0.06-0.89,0.06c-2.95,0-5.89,0-8.84,0c-1.09,0-1.64,0.4-1.65,1.18c-0.01,0.78,0.56,1.21,1.63,1.21
	c2.95,0,5.89,0,8.84,0c3.18,0,5.14-1.96,5.17-5.13c0-0.19,0.12-0.41,0.25-0.55c2.51-2.6,5.03-5.2,7.56-7.79
	c0.94-0.96,2.36-1.02,3.31-0.17c0.96,0.86,1.09,2.28,0.24,3.31c-3.51,4.23-7,8.48-10.6,12.63c-1.56,1.8-3.73,2.45-6.09,2.45
	c-4.9,0-9.81,0.05-14.71-0.02c-2.22-0.03-4.07,0.61-5.56,2.26C20.91,49.09,20.76,49.2,20.66,49.29z M27.2,41.76
	c0.66,0,1.19-0.56,1.17-1.23c-0.02-0.65-0.53-1.14-1.18-1.14c-0.64,0-1.17,0.52-1.18,1.15C25.99,41.19,26.56,41.76,27.2,41.76z"/>
<path class="st23" d="M14.88,58.15c-4.12-4.03-8.03-7.86-11.97-11.72c0.13-0.15,0.19-0.24,0.27-0.32c1.47-1.47,2.93-2.94,4.4-4.41
	c0.7-0.7,1.3-0.71,2-0.02c3.26,3.26,6.52,6.51,9.78,9.77c0.69,0.69,0.67,1.3,0,2C17.83,55.05,16.32,56.64,14.88,58.15z"/>
<path d="M27.2,41.76c-0.65,0-1.21-0.57-1.2-1.21c0.01-0.63,0.54-1.15,1.18-1.15c0.65,0,1.17,0.49,1.18,1.14
	C28.39,41.2,27.86,41.76,27.2,41.76z"/>
<linearGradient id="SVGID_1_" gradientUnits="userSpaceOnUse" x1="35.4843" y1="6.6524" x2="35.4843" y2="19.7246">
	<stop  offset="0" style="stop-color:#FFC400"/>
	<stop  offset="1" style="stop-color:#FF6E00"/>
</linearGradient>
<path class="st1" d="M39.5,8.3h-1.96c0.31,0.45,0.5,0.98,0.59,1.58h1.81l-0.45,1.63h-1.36c-0.13,0.99-0.53,1.74-1.19,2.27
	c-0.66,0.52-1.59,0.84-2.79,0.94l4.18,4.89v0.12h-2.58L31.2,14.4l-0.01-1.37h2.27c0.67,0,1.2-0.14,1.59-0.42
	c0.39-0.28,0.65-0.64,0.79-1.1h-4.83l0.46-1.63h4.34c-0.29-0.93-1.09-1.39-2.38-1.39h-2.42l0.48-1.83h8.46L39.5,8.3z"/>
</svg>
