<svg xmlns="http://www.w3.org/2000/svg" width="32.004" height="50" viewBox="0 0 32.004 50">
  <g id="Group_7888" data-name="Group 7888" transform="translate(0.004)">
    <path id="Path_23102" data-name="Path 23102" d="M31.5,44.907v4.231a.83.83,0,0,1-.8.862H1.308a.829.829,0,0,1-.8-.851V44.907a8.089,8.089,0,0,1,4.4-7.319,12.386,12.386,0,0,1-3.85-4.727,12.089,12.089,0,0,1,.729-11.269,11.65,11.65,0,0,0,1.737-6.147V10.776C3.518,4.825,8.023,0,13.58,0h4.835c5.557,0,10.062,4.823,10.063,10.774v0c0,4.944-.113,5.913.444,7.879.785,2.784,1.823,3.124,2.622,5.954a11.888,11.888,0,0,1-3.559,12.219l-.892.759a8.089,8.089,0,0,1,4.4,7.319Z" transform="translate(0 0)" fill="#ffdfba"/>
    <path id="Path_23103" data-name="Path 23103" d="M31.5,42.494v4.229a.83.83,0,0,1-.8.857H1.308a.829.829,0,0,1-.8-.851V42.494A7.78,7.78,0,0,1,8,34.463H8a3.928,3.928,0,0,0,1.729-.4l.025.058L15.5,38.882a.763.763,0,0,0,.986,0l5.746-4.762.025-.058a3.928,3.928,0,0,0,1.729.4A7.778,7.778,0,0,1,31.5,42.484Z" transform="translate(0 2.414)" fill="#22c0e7"/>
    <path id="Path_23104" data-name="Path 23104" d="M25.2,14.97a.839.839,0,0,1,.762.857v5.158c0,5.893-4.468,10.667-9.971,10.663S6.04,26.871,6.036,20.985V15.9a.829.829,0,0,1,.8-.86.626.626,0,0,1,.077,0,19.794,19.794,0,0,0,13.58-3.716.768.768,0,0,1,1.112.224.868.868,0,0,1,.111.257A3.839,3.839,0,0,0,25.2,14.97Z" transform="translate(0 0.792)" fill="#ffebd2"/>
    <path id="Path_23105" data-name="Path 23105" d="M27.985,36.831l-.892.759a7.067,7.067,0,0,0-3.1-.715,4.317,4.317,0,0,1-4.169-4.452v-.739l-.015-.04a10.7,10.7,0,0,0,6.153-9.861V16.623a.839.839,0,0,0-.762-.857,3.838,3.838,0,0,1-3.488-3.16.8.8,0,0,0-.983-.6.761.761,0,0,0-.24.119A19.782,19.782,0,0,1,6.912,15.844a.818.818,0,0,0-.871.774c0,.027,0,.055,0,.082v5.086a10.7,10.7,0,0,0,6.153,9.861l-.015.04v.736A4.318,4.318,0,0,1,8.01,36.876h0a7.067,7.067,0,0,0-3.1.715l-.892-.759A11.957,11.957,0,0,1,1.785,21.6a11.65,11.65,0,0,0,1.737-6.147V10.777C3.521,4.825,8.026,0,13.584,0h4.831c5.558,0,10.063,4.824,10.063,10.776h0v4.67a11.659,11.659,0,0,0,1.737,6.147A11.957,11.957,0,0,1,27.985,36.831Z" transform="translate(0 0)" fill="#2f3145"/>
    <path id="Path_23106" data-name="Path 23106" d="M19.936,31.357a9.38,9.38,0,0,1-7.872,0,7.135,7.135,0,0,0,.114-1.769l.015-.04a9.367,9.367,0,0,0,7.615,0l.015.04a7.135,7.135,0,0,0,.113,1.769Z" transform="translate(0 2.094)" fill="#ffd6a6"/>
    <path id="Path_23107" data-name="Path 23107" d="M22.953,1.16a1.163,1.163,0,0,1,.459,1.511,1.036,1.036,0,0,1-1.025.609,9.491,9.491,0,0,0-.961-.048H16.6C11.045,3.231,6.54,8.053,6.539,14v1.312c0,.774-.5.75-.5,1.376,0,5.691.022,5.33-.056,5.575-.789,2.485-1.737,2.845-2.506,5.569a12.178,12.178,0,0,0-.4,4.489,1.106,1.106,0,0,1-.941,1.229,1.044,1.044,0,0,1-1.079-.7,12.086,12.086,0,0,1,.728-11.264,11.65,11.65,0,0,0,1.736-6.145V10.772C3.521,4.823,8.025,0,13.58,0h4.828a9.483,9.483,0,0,1,4.544,1.16Z" transform="translate(0 0)" fill="#3c3e52"/>
    <path id="Path_23108" data-name="Path 23108" d="M14.089,27.878a1.717,1.717,0,0,1,.44,2.278,1.485,1.485,0,0,1-1.789.65,10.575,10.575,0,0,1-6.7-10.072V15.651a.829.829,0,0,1,.8-.86.625.625,0,0,1,.077,0c.385.037.809.067,1.266.082A1.6,1.6,0,0,1,9.662,16.52v2.493A10.848,10.848,0,0,0,14.089,27.878Z" transform="translate(0 1.048)" fill="#fff3e4"/>
    <path id="Path_23109" data-name="Path 23109" d="M11.417,35.5a.72.72,0,0,1,.117.962.626.626,0,0,1-.5.267,7.777,7.777,0,0,0-7.517,8.013v2.847H1.308a.83.83,0,0,1-.8-.857V42.5a7.78,7.78,0,0,1,7.5-8.032,3.924,3.924,0,0,0,1.728-.4l.025.058Z" transform="translate(0 2.414)" fill="#03b9e2"/>
    <path id="Path_23110" data-name="Path 23110" d="M20.583,35.5a.72.72,0,0,0-.117.962.626.626,0,0,0,.5.267,7.777,7.777,0,0,1,7.517,8.013v2.847h2.213a.83.83,0,0,0,.8-.857V42.5a7.78,7.78,0,0,0-7.5-8.032,3.924,3.924,0,0,1-1.728-.4l-.025.058Z" transform="translate(0 2.414)" fill="#03b9e2"/>
  </g>
</svg>
