<svg xmlns="http://www.w3.org/2000/svg" width="24" height="24" viewBox="0 0 24 24">
  <g id="Group_85" data-name="Group 85" transform="translate(-1728.529 -483)">
    <rect id="Rectangle_36" data-name="Rectangle 36" width="24" height="24" transform="translate(1728.529 483)" fill="none"/>
    <path id="Path_22108" data-name="Path 22108" d="M20.167,8H11.834A1.836,1.836,0,0,0,10,9.833V22.166A1.836,1.836,0,0,0,11.833,24h8.333A1.836,1.836,0,0,0,22,22.167V9.833A1.835,1.835,0,0,0,20.167,8Zm-7.5,3.333h3.5a.667.667,0,1,1,0,1.334h-3.5a.667.667,0,0,1,0-1.334Zm6.666,9.334H12.666a.667.667,0,0,1,0-1.334h6.667a.667.667,0,0,1,0,1.334Zm0-2.667H12.666a.667.667,0,0,1,0-1.334h6.667a.667.667,0,1,1,0,1.334Zm0-2.667H12.666A.667.667,0,0,1,12.614,14a.451.451,0,0,1,.052,0h6.667a.667.667,0,0,1,0,1.333Z" transform="translate(1724.529 479)" fill="#acadb5"/>
  </g>
</svg>
