<?xml version="1.0" encoding="utf-8"?>
<!-- Generator: Adobe Illustrator 26.0.3, SVG Export Plug-In . SVG Version: 6.00 Build 0)  -->
<svg version="1.1" id="Layer_1" xmlns="http://www.w3.org/2000/svg" xmlns:xlink="http://www.w3.org/1999/xlink" x="0px" y="0px"
	 viewBox="0 0 19.28 22.79" style="enable-background:new 0 0 19.28 22.79;" xml:space="preserve">
<style type="text/css">
	.st0{fill:#3D90FF;}
</style>
<path d="M19.28,22.79c-6.45,0-12.85,0-19.28,0C0,15.2,0,7.63,0,0.02C0.1,0.02,0.2,0,0.3,0c4.69,0,9.37,0,14.06,0
	c0.21,0,0.35,0.06,0.5,0.21c1.4,1.41,2.81,2.81,4.22,4.21c0.14,0.14,0.21,0.29,0.21,0.5c-0.01,5.86,0,11.71,0,17.57
	C19.28,22.58,19.28,22.67,19.28,22.79z M14.04,1.07c-4.35,0-8.66,0-12.99,0C1.04,1.2,1.03,1.31,1.03,1.42c0,6.66,0,13.31,0,19.97
	c0,0.37,0,0.37,0.38,0.37c5.49,0,10.97,0,16.46,0.01c0.29,0,0.37-0.07,0.37-0.36c-0.01-5.31-0.01-10.61-0.01-15.92
	c0-0.12,0-0.24,0-0.39c-1.42,0-2.79,0-4.19,0C14.04,3.74,14.04,2.42,14.04,1.07z"/>
<path d="M16.65,13.25c0,0.35,0,0.68,0,1.02c-4.68,0-9.34,0-14.03,0c0-0.34,0-0.67,0-1.02C7.29,13.25,11.95,13.25,16.65,13.25z"/>
<path d="M2.61,17.06c0-0.34,0-0.67,0-1.02c4.68,0,9.35,0,14.04,0c0,0.34,0,0.67,0,1.02C11.97,17.06,7.3,17.06,2.61,17.06z"/>
<path d="M14.52,18.85c0,0.33,0,0.66,0,1c-3.97,0-7.93,0-11.91,0c0-0.33,0-0.65,0-1C6.57,18.85,10.53,18.85,14.52,18.85z"/>
<path class="st0" d="M7.48,7.44C7.22,7.68,7.01,7.87,6.85,8.02c-0.36-0.16-0.67-0.34-1-0.42C5.17,7.44,4.5,7.72,4.16,8.25
	c-0.36,0.56-0.34,1.3,0.07,1.87c0.43,0.6,1.37,0.77,2.06,0.43c0.07-0.04,0.13-0.18,0.13-0.28c0.02-0.29,0.01-0.59,0.01-0.88
	C6.43,9.2,6.49,9.12,6.69,9.11c0.69-0.03,0.69-0.03,0.69,0.64c0,0.35,0.01,0.7-0.01,1.05c0,0.1-0.06,0.23-0.14,0.28
	c-0.96,0.64-2.54,0.75-3.52-0.08C3,10.42,2.76,9.64,2.89,8.76c0.13-0.93,0.67-1.59,1.56-1.9c0.98-0.34,1.92-0.25,2.78,0.39
	C7.3,7.32,7.38,7.37,7.48,7.44z"/>
<path class="st0" d="M11.53,7.8c-0.43-0.1-0.81-0.23-1.19-0.28C10.08,7.49,9.8,7.54,9.56,7.64C9.42,7.69,9.29,7.9,9.25,8.06
	C9.2,8.27,9.35,8.45,9.56,8.51c0.31,0.1,0.62,0.18,0.93,0.27c0.21,0.06,0.42,0.11,0.63,0.18c0.54,0.19,0.89,0.54,0.94,1.13
	c0.04,0.49-0.3,1.02-0.82,1.26c-0.67,0.31-1.37,0.3-2.06,0.14c-0.3-0.07-0.59-0.21-0.88-0.32c-0.15-0.06-0.17-0.16-0.1-0.29
	c0.09-0.18,0.18-0.37,0.27-0.58c0.54,0.3,1.08,0.5,1.68,0.46c0.2-0.01,0.41-0.04,0.57-0.14c0.13-0.08,0.27-0.27,0.28-0.41
	c0.01-0.13-0.13-0.32-0.26-0.39c-0.21-0.12-0.46-0.17-0.7-0.24C9.71,9.5,9.37,9.43,9.05,9.31C8.54,9.11,8.21,8.77,8.2,8.18
	C8.2,7.58,8.48,7.15,9.01,6.92c0.88-0.38,1.76-0.3,2.63,0.07c0.14,0.06,0.18,0.15,0.11,0.29C11.67,7.46,11.6,7.64,11.53,7.8z"/>
<path class="st0" d="M14.36,6.78c0.58,0,1.16,0.01,1.74,0c0.21,0,0.31,0.04,0.3,0.28c-0.01,0.63,0.05,0.53-0.53,0.53
	c-0.24,0-0.48,0.01-0.71,0c-0.23-0.02-0.31,0.07-0.31,0.3c0.01,1.08,0,2.17,0,3.25c0,0.38,0,0.38-0.37,0.38
	c-0.67,0-0.67,0-0.67-0.68c0-0.97-0.01-1.94,0.01-2.91c0-0.28-0.09-0.37-0.36-0.35c-0.32,0.02-0.65,0-0.97,0.01
	c-0.16,0-0.22-0.05-0.22-0.22c0.01-0.73-0.06-0.6,0.55-0.6C13.33,6.78,13.85,6.78,14.36,6.78z"/>
</svg>
