<svg id="like" xmlns="http://www.w3.org/2000/svg" width="24" height="24" viewBox="0 0 24 24">
  <rect id="Rectangle_2092" data-name="Rectangle 2092" width="24" height="24" fill="none"/>
  <path id="Icon_ionic-ios-heart-empty" data-name="Icon ionic-ios-heart-empty" d="M3.375,3.938Z" transform="translate(8.625 8.063)" fill="#22c0e7" opacity="0"/>
  <g id="Component_25_2" data-name="Component 25 – 2">
    <rect id="Rectangle_542" data-name="Rectangle 542" width="24" height="24" fill="none"/>
    <g id="Group_7880" data-name="Group 7880" transform="translate(-382.42 -480.833)">
      <path id="Path_23098" data-name="Path 23098" d="M399.17,508.084a1.1,1.1,0,0,1-.749-.291l-.883-.817c-4.286-3.957-7.118-6.571-7.118-9.962a5.078,5.078,0,0,1,5.093-5.171,5.4,5.4,0,0,1,3.656,1.631,5.4,5.4,0,0,1,3.656-1.631,5.079,5.079,0,0,1,5.095,5.171c0,3.386-2.825,6-7.1,9.952l-.9.831A1.1,1.1,0,0,1,399.17,508.084Zm.1-1.209h0Zm-3.757-13.783a3.841,3.841,0,0,0-3.843,3.921c0,2.844,2.672,5.31,6.716,9.044l.029.027h0l.755.7.8-.736c4.034-3.73,6.7-6.195,6.7-9.034a3.842,3.842,0,0,0-3.845-3.921,4.473,4.473,0,0,0-3.178,1.7.625.625,0,0,1-.479.224h0a.626.626,0,0,1-.479-.224A4.463,4.463,0,0,0,395.513,493.092Z" transform="translate(-4.75 -7.132)" fill="#52616b"/>
      <rect id="Rectangle_2214" data-name="Rectangle 2214" width="20" height="20" transform="translate(384.42 482.833)" fill="none"/>
    </g>
  </g>
</svg>
