<svg xmlns="http://www.w3.org/2000/svg" width="32" height="50" viewBox="0 0 32 50">
  <g id="man" transform="translate(0 0.004)">
    <path id="Path_54776" data-name="Path 54776" d="M110.028,44.9v4.23a.847.847,0,0,1-.831.862H78.859a.847.847,0,0,1-.831-.862V44.9a7.9,7.9,0,0,1,7.75-8.034,4.263,4.263,0,0,0,3.611-2.024,5.216,5.216,0,0,0,.691-3.158l.016-.039a10.678,10.678,0,0,1-6.353-9.857v-.337a2.515,2.515,0,0,1-1.832-.76,2.707,2.707,0,0,1-.768-1.884V14.324c-.033-1.555.035-7.057,3.865-10.888,4.453-4.451,11.51-4.087,16.621-1.706a.219.219,0,0,1-.007.4l-1.333.569a.217.217,0,0,0-.128.231.212.212,0,0,0,.185.184l.647.073a10.451,10.451,0,0,1,7.825,5.1.069.069,0,0,1-.01.079,6.643,6.643,0,0,0-1.8,4.563v5.723a2.751,2.751,0,0,1-2.7,2.8v.337a10.679,10.679,0,0,1-6.354,9.858l.017.039a5.214,5.214,0,0,0,.691,3.158,4.264,4.264,0,0,0,3.611,2.031,7.9,7.9,0,0,1,7.75,8.034Z" transform="translate(-78.028 0)" fill="#ffdfba"/>
    <path id="Path_54777" data-name="Path 54777" d="M135.67,8.278a.067.067,0,0,1-.01.079,6.643,6.643,0,0,0-1.795,4.563v5.72a2.751,2.751,0,0,1-2.7,2.8V15.563a.872.872,0,0,0-.336-.692.806.806,0,0,0-.736-.132,10.787,10.787,0,0,1-5.683.346c-3.614-.814-4.637-2.281-7.585-3.016a4.921,4.921,0,0,0-4.342.984,5.321,5.321,0,0,0-1.918,4.158c.006,1.1.024,2.473.026,4.228a2.514,2.514,0,0,1-1.831-.759,2.706,2.706,0,0,1-.769-1.883v-4.48c-.033-1.555.035-7.051,3.865-10.88,4.453-4.449,11.511-4.085,16.622-1.7a.219.219,0,0,1-.007.4L127.14,2.7a.217.217,0,0,0-.128.231.212.212,0,0,0,.185.184l.648.072a10.45,10.45,0,0,1,7.826,5.094Z" transform="translate(-104.877 -0.001)" fill="#2f3145"/>
    <path id="Path_54778" data-name="Path 54778" d="M152.308,113.47a.806.806,0,0,1,.736.132.872.872,0,0,1,.336.692v6.215a10.3,10.3,0,1,1-20.577,0c0-1.97-.019-3.362-.026-4.563a5.322,5.322,0,0,1,1.919-4.158,4.922,4.922,0,0,1,4.342-.984c2.948.733,3.972,2.2,7.586,3.016a10.793,10.793,0,0,0,5.684-.349Z" transform="translate(-127.091 -98.726)" fill="#ffebd2"/>
    <path id="Path_54779" data-name="Path 54779" d="M110.028,333.427v4.228a.847.847,0,0,1-.831.862H78.859a.847.847,0,0,1-.831-.862v-4.228a7.894,7.894,0,0,1,7.749-8.03,4.263,4.263,0,0,0,3.612-2.031,6.942,6.942,0,0,0,9.278,0,4.263,4.263,0,0,0,3.612,2.031,7.894,7.894,0,0,1,7.749,8.03Z" transform="translate(-78.028 -288.52)" fill="rgba(34,192,231,0.75)"/>
    <path id="Path_54780" data-name="Path 54780" d="M284.351,432.779h-2.492a.862.862,0,0,1,0-1.723h2.492a.862.862,0,0,1,0,1.723Z" transform="translate(-259.936 -384.613)" fill="#fff"/>
    <path id="Path_54781" data-name="Path 54781" d="M89.958,328a4.084,4.084,0,0,1-1.237.2,7.91,7.91,0,0,0-7.785,8v.81a1.482,1.482,0,0,1-1.454,1.508h-.623a.847.847,0,0,1-.831-.862v-4.228a7.892,7.892,0,0,1,7.744-8.03,4.264,4.264,0,0,0,3.611-2.031,7.2,7.2,0,0,0,.988.734,2.177,2.177,0,0,1,1.008,2.088A2.136,2.136,0,0,1,89.958,328Z" transform="translate(-78.028 -288.52)" fill="#03b9e2"/>
    <path id="Path_54782" data-name="Path 54782" d="M258.792,328a4.085,4.085,0,0,0,1.237.2,7.91,7.91,0,0,1,7.785,8v.81a1.482,1.482,0,0,0,1.454,1.508h.623a.847.847,0,0,0,.831-.862v-4.228a7.892,7.892,0,0,0-7.744-8.03,4.264,4.264,0,0,1-3.611-2.031,7.2,7.2,0,0,1-.988.734,2.177,2.177,0,0,0-1.008,2.088A2.136,2.136,0,0,0,258.792,328Z" transform="translate(-238.722 -288.52)" fill="#03b9e2"/>
    <path id="Path_54783" data-name="Path 54783" d="M201.025,295.494a9.972,9.972,0,0,1-8.127,0,6.915,6.915,0,0,0,.117-1.768l.016-.039a9.961,9.961,0,0,0,7.861,0l.016.039a6.913,6.913,0,0,0,.117,1.768Z" transform="translate(-180.962 -262.044)" fill="#ffd6a6"/>
    <path id="Path_54784" data-name="Path 54784" d="M128.461,2.13c-.979.415-1.2.564-1.645.487-8.241-1.406-14.729,3.061-15.616,11.8a1.35,1.35,0,0,1-.119.442c-.632,1.334-.52,2.322-.506,3.962a1.291,1.291,0,0,1-2.579.113c0-.1,0,.176,0-4.608-.033-1.555.035-7.051,3.863-10.88,4.451-4.449,11.5-4.085,16.613-1.7a.219.219,0,0,1-.007.4Z" transform="translate(-104.876 0)" fill="#3c3e52"/>
    <path id="Path_54785" data-name="Path 54785" d="M140.758,142.233a1.738,1.738,0,0,1,.578,2.213,1.616,1.616,0,0,1-2.071.8,10.668,10.668,0,0,1-6.461-9.9c0-1.97-.019-3.357-.026-4.563a5.388,5.388,0,0,1,.831-2.923,1.225,1.225,0,0,1,1.423-.511,1.293,1.293,0,0,1,.861,1.28c.007,1.212.026,2.592.026,4.563A10.678,10.678,0,0,0,140.758,142.233Z" transform="translate(-127.089 -113.564)" fill="#fff3e4"/>
  </g>
</svg>
