<svg id="icon" xmlns="http://www.w3.org/2000/svg" width="24" height="24" viewBox="0 0 24 24">
  <rect id="Rectangle_251" data-name="Rectangle 251" width="24" height="24" fill="none"/>
  <g id="noun_banking_1783868" transform="translate(4 4)">
    <path id="Path_185" data-name="Path 185" d="M22.448,38.955A.435.435,0,0,1,22,38.536V31.419a.449.449,0,0,1,.9,0v7.118A.435.435,0,0,1,22.448,38.955Z" transform="translate(-20.207 -25.194)" stroke="#fff" stroke-width="0.1"/>
    <path id="Path_186" data-name="Path 186" d="M35.448,38.955A.435.435,0,0,1,35,38.536V31.419a.449.449,0,0,1,.9,0v7.118A.435.435,0,0,1,35.448,38.955Z" transform="translate(-30.402 -25.194)" stroke="#fff" stroke-width="0.1"/>
    <path id="Path_187" data-name="Path 187" d="M48.448,38.955A.435.435,0,0,1,48,38.536V31.419a.449.449,0,0,1,.9,0v7.118A.435.435,0,0,1,48.448,38.955Z" transform="translate(-40.556 -25.194)" stroke="#fff" stroke-width="0.1"/>
    <path id="Path_188" data-name="Path 188" d="M61.448,38.955A.435.435,0,0,1,61,38.536V31.419a.449.449,0,0,1,.9,0v7.118A.435.435,0,0,1,61.448,38.955Z" transform="translate(-50.713 -25.194)" stroke="#fff" stroke-width="0.1"/>
    <path id="Path_189" data-name="Path 189" d="M74.448,38.955A.435.435,0,0,1,74,38.536V31.419a.449.449,0,0,1,.9,0v7.118A.435.435,0,0,1,74.448,38.955Z" transform="translate(-60.908 -25.194)" stroke="#fff" stroke-width="0.1"/>
    <path id="Path_190" data-name="Path 190" d="M29.342,12.5h-14.9A.445.445,0,0,1,14,12.048v-.986a.464.464,0,0,1,.219-.381l7.452-4.615a.427.427,0,0,1,.46,0l7.452,4.615a.464.464,0,0,1,.219.381v.986A.479.479,0,0,1,29.342,12.5Zm-14.466-.9H28.9v-.291L21.89,6.963l-7.014,4.346Z" transform="translate(-14 -6)" stroke="#fff" stroke-width="0.1"/>
    <path id="Path_191" data-name="Path 191" d="M29.342,75.9h-14.9a.448.448,0,0,1,0-.9h14.9a.448.448,0,0,1,0,.9Z" transform="translate(-14 -61.688)" stroke="#fff" stroke-width="0.1"/>
    <path id="Path_211" data-name="Path 211" d="M29.342,75.9h-14.9a.448.448,0,0,1,0-.9h14.9a.448.448,0,0,1,0,.9Z" transform="translate(-14 -59.896)" stroke="#fff" stroke-width="0.1"/>
  </g>
</svg>
