<svg id="icon" xmlns="http://www.w3.org/2000/svg" width="24" height="24" viewBox="0 0 24 24">
  <rect id="Rectangle_251" data-name="Rectangle 251" width="24" height="24" fill="none"/>
  <g id="Group_993" data-name="Group 993" transform="translate(3 7)">
    <g id="noun_cash_574786" transform="translate(0 0)">
      <g id="Group_975" data-name="Group 975" transform="translate(0 1.066)">
        <g id="Group_974" data-name="Group 974" transform="translate(0 0)">
          <path id="Path_201" data-name="Path 201" d="M253.6,252.117a3.089,3.089,0,0,1-1.66,1.639.221.221,0,0,0-.158.206v1.269l.215-.214h-2.44l.215.214v-1.277a.221.221,0,0,0-.158-.206,3.071,3.071,0,0,1-1.837-2.336,3.034,3.034,0,0,1,1.837-3.255.221.221,0,0,0,.158-.206v-1.272l-.215.214h2.44l-.215-.214v1.264a.221.221,0,0,0,.158.206,3.079,3.079,0,0,1,1.581,1.47,3.046,3.046,0,0,1,.057,2.55.214.214,0,0,0,.15.263.221.221,0,0,0,.265-.149,3.446,3.446,0,0,0-1.938-4.546l.158.206v-1.264a.216.216,0,0,0-.215-.214h-2.44a.216.216,0,0,0-.215.214v1.272l.158-.206a3.512,3.512,0,0,0-2.079,2.351,3.474,3.474,0,0,0,.864,3.253,3.525,3.525,0,0,0,1.215.812l-.158-.206v1.277a.216.216,0,0,0,.215.214h2.44a.216.216,0,0,0,.215-.214v-1.269l-.158.206a3.506,3.506,0,0,0,1.917-1.835.218.218,0,0,0-.077-.293A.216.216,0,0,0,253.6,252.117Z" transform="translate(-242.292 -246.456)" stroke="#000" stroke-width="0.2"/>
          <path id="Path_202" data-name="Path 202" d="M.07,246.243v8.564a.216.216,0,0,0,.214.214H16.838a.216.216,0,0,0,.214-.214v-8.564a.216.216,0,0,0-.214-.214H.284a.214.214,0,0,0,0,.428H16.838l-.214-.214v8.564l.214-.214H.284l.214.214v-8.564A.214.214,0,0,0,.07,246.243Z" transform="translate(-0.07 -246.029)" stroke="#000" stroke-width="0.2"/>
        </g>
      </g>
      <g id="Group_989" data-name="Group 989" transform="translate(1.418)">
        <g id="Group_988" data-name="Group 988" transform="translate(0 0)">
          <path id="Path_209" data-name="Path 209" d="M85.892,202.534v-8.361a.216.216,0,0,0-.214-.214H69.516a.214.214,0,0,0,0,.428H85.678l-.214-.214v8.361a.214.214,0,0,0,.428,0Z" transform="translate(-69.309 -193.959)" stroke="#000" stroke-width="0.2"/>
        </g>
      </g>
      <g id="Group_991" data-name="Group 991" transform="translate(7.049 1.075)">
        <g id="Group_990" data-name="Group 990" transform="translate(0 0)">
          <path id="Path_210" data-name="Path 210" d="M348.8,246.679v8.552l.215-.214h-2.44l.215.214v-8.552l-.215.214h2.44a.214.214,0,0,0,0-.428h-2.44a.216.216,0,0,0-.215.214v8.552a.216.216,0,0,0,.215.214h2.44a.216.216,0,0,0,.215-.214v-8.552A.215.215,0,0,0,348.8,246.679Z" transform="translate(-346.363 -246.465)" stroke="#000" stroke-width="0.2"/>
        </g>
      </g>
    </g>
  </g>
</svg>
