<?xml version="1.0" encoding="utf-8"?>
<!-- Generator: Adobe Illustrator 26.0.3, SVG Export Plug-In . SVG Version: 6.00 Build 0)  -->
<svg version="1.1" id="Layer_1" xmlns="http://www.w3.org/2000/svg" xmlns:xlink="http://www.w3.org/1999/xlink" x="0px" y="0px"
	 viewBox="0 0 61 61" style="enable-background:new 0 0 61 61;" xml:space="preserve">
<style type="text/css">
	.st0{fill:#39B54A;}
	.st1{fill:url(#SVGID_1_);}
	.st2{fill:#F7931E;}
	.st3{fill:#FFFFFF;}
	.st4{fill:#A3A3A3;}
	.st5{fill:#949494;}
	.st6{fill:url(#SVGID_00000183236206998005858450000008481634705236067726_);}
	.st7{fill:#828282;}
	.st8{fill:#0087EC;}
	.st9{fill:#FCFCFC;}
	.st10{fill:url(#SVGID_00000176742549683900547710000018028980450044739509_);}
	.st11{fill:url(#SVGID_00000168810913414446420430000005693667852705355432_);}
	.st12{fill:url(#SVGID_00000142143596709777081640000008381968353881326263_);}
	.st13{fill:url(#SVGID_00000067210675840486362860000013928145154181789568_);}
	.st14{fill:url(#SVGID_00000073684588702113220230000015435243532622499996_);}
	.st15{fill:url(#SVGID_00000047756913742169877190000001173635602816896941_);}
	.st16{opacity:0.7;}
	.st17{fill:#999999;}
	.st18{fill:#CC99FF;}
	.st19{fill:#CC66FF;}
	.st20{fill:url(#SVGID_00000008134650773792044620000000805941799028550794_);}
	.st21{fill:#008EEF;}
	.st22{fill:#C7B299;}
	.st23{fill:#0071BC;}
	.st24{fill:url(#SVGID_00000000924942345899731310000005787228354841330087_);}
	.st25{opacity:0.5;fill:#009245;}
</style>
<circle class="st18" cx="29.57" cy="30.5" r="20.04"/>
<path class="st19" d="M47.48,42.34c1.89,1.25,3.76,2.48,5.62,3.72c-4.5,7.44-14.73,14.34-27.32,12.84
	C12.43,57.3,2.49,46.81,0.84,34.34C-1.01,20.36,7.35,7.88,19.63,3.53c3.36-1.19,6.82-1.73,10.38-1.62c3.54,0.1,6.95,0.83,10.22,2.2
	c3.28,1.38,6.21,3.3,8.78,5.77c2.55,2.45,4.58,5.29,6.12,8.54c1.75-0.67,3.47-1.33,5.3-2.03c-0.89,5.62-1.77,11.16-2.66,16.8
	c-4.43-3.59-8.79-7.11-13.22-10.7c1.41-0.55,2.76-1.07,4.11-1.59c-2.51-5.65-9.84-12.68-20.63-12.14
	C18.24,9.25,9.9,16.36,7.86,26.07c-2.04,9.75,2.91,19.72,11.91,24.06C29.14,54.65,41.23,51.92,47.48,42.34z"/>
<path class="st3" d="M29.73,20.84c0,2.22,0,4.45-0.01,6.67c0,0.31,0.07,0.49,0.36,0.65c1.43,0.78,2.11,2.26,1.79,3.86
	c-0.06,0.3,0.01,0.47,0.24,0.66c1.84,1.52,3.66,3.06,5.48,4.6c0.23,0.19,0.45,0.44,0.57,0.7c0.26,0.55,0.06,1.2-0.42,1.57
	c-0.51,0.39-1.17,0.39-1.71-0.05c-1.04-0.85-2.07-1.73-3.1-2.59c-0.85-0.71-1.7-1.41-2.53-2.13c-0.25-0.21-0.44-0.26-0.77-0.13
	c-1.78,0.69-3.74-0.13-4.54-1.85c-0.78-1.7-0.14-3.7,1.52-4.62c0.3-0.17,0.4-0.35,0.39-0.68c-0.01-4.43-0.01-8.86-0.01-13.3
	c0-0.89,0.48-1.47,1.24-1.52c0.86-0.06,1.46,0.52,1.47,1.43C29.73,16.36,29.73,18.6,29.73,20.84z"/>
</svg>
