<?xml version="1.0" encoding="utf-8"?>
<!-- Generator: Adobe Illustrator 26.1.0, SVG Export Plug-In . SVG Version: 6.00 Build 0)  -->
<svg version="1.1" id="Layer_1" xmlns="http://www.w3.org/2000/svg" xmlns:xlink="http://www.w3.org/1999/xlink" x="0px" y="0px"
	 viewBox="0 0 22.8 22.8" style="enable-background:new 0 0 22.8 22.8;" xml:space="preserve">
<style type="text/css">
	.st0{fill:#3D90FF;}
</style>
<path d="M11.4,22.8C5.1,22.8,0,17.7,0,11.4C0,5.1,5.1,0,11.4,0c6.3,0,11.4,5.1,11.4,11.4C22.8,17.7,17.7,22.8,11.4,22.8z M11.4,20.7
	c5.1,0,9.3-4.1,9.3-9.3c0-5.2-4.2-9.3-9.3-9.3c-5.1,0-9.3,4.2-9.3,9.3C2.1,16.5,6.2,20.7,11.4,20.7z"/>
<path class="st0" d="M14.9,7.1h-1.7c0.3,0.4,0.4,0.9,0.5,1.4h1.6l-0.4,1.4h-1.2c-0.1,0.9-0.5,1.5-1,2c-0.6,0.5-1.4,0.7-2.4,0.8
	l3.6,4.3v0.1h-2.2l-4-4.6l0-1.2h2c0.6,0,1-0.1,1.4-0.4s0.6-0.6,0.7-1H7.5l0.4-1.4h3.8c-0.3-0.8-1-1.2-2.1-1.2H7.5l0.4-1.6h7.4
	L14.9,7.1z"/>
</svg>
