<svg xmlns="http://www.w3.org/2000/svg" width="24" height="24" viewBox="0 0 24 24">
  <g id="Group_7638" data-name="Group 7638" transform="translate(-64 -623)">
    <g id="Group_7628" data-name="Group 7628" transform="translate(2 2)">
      <g id="Group_7634" data-name="Group 7634" transform="translate(63 623)">
        <g id="share" transform="translate(11.207 8.245)">
          <g id="Group_7611" data-name="Group 7611">
            <path id="Path_22598" data-name="Path 22598" d="M1441.883,403.454a2.022,2.022,0,0,0-1.628.822l-3.176-1.624a2.024,2.024,0,0,0-.064-1.33l3.325-2a2.015,2.015,0,1,0-.346-.579l-3.336,2a2.023,2.023,0,1,0,.124,2.509l3.167,1.62a2.023,2.023,0,1,0,1.933-1.423Zm0-6.789a1.349,1.349,0,1,1-1.35,1.349A1.349,1.349,0,0,1,1441.883,396.665Zm-6.745,6.767a1.349,1.349,0,1,1,1.349-1.349h0A1.351,1.351,0,0,1,1435.139,403.432Zm6.745,3.4a1.349,1.349,0,1,1,1.349-1.349h0a1.35,1.35,0,0,1-1.349,1.348Z" transform="translate(-1433.115 -396)" fill="#08bae2" stroke="#08bae2" stroke-linejoin="round" stroke-width="0.4"/>
          </g>
        </g>
        <g id="Group_7634-2" data-name="Group 7634" transform="translate(0 0)">
          <path id="Path_22635" data-name="Path 22635" d="M1459.889,265.526a1.155,1.155,0,1,0-1.306-.989A1.152,1.152,0,0,0,1459.889,265.526Z" transform="translate(-1446.439 -259.81)" fill="none"/>
          <path id="Path_22636" data-name="Path 22636" d="M1159.447,202.191a2.655,2.655,0,0,1,.89.153q1.141-1.505,2.283-3.01a2.807,2.807,0,0,0,.572-2.179c-.219-1.551-.428-3.1-.645-4.656a1.67,1.67,0,0,0-.1-.4,1.144,1.144,0,0,0-1.3-.695c-.827.11-1.654.227-2.481.34-.743.1-1.485.208-2.229.306a2.776,2.776,0,0,0-1.928,1.131q-3.606,4.77-7.221,9.533a1.483,1.483,0,0,0,.318,2.259l5.539,4.2a1.51,1.51,0,0,0,2.244-.3l1.877-2.477a2.661,2.661,0,0,1,2.174-4.2Zm-.3-8.953a1.939,1.939,0,0,1,.513,3.844,1.939,1.939,0,1,1-.513-3.844Z" transform="translate(-1146.113 -190.583)" fill="none"/>
          <path id="Path_22637" data-name="Path 22637" d="M1142.824,175.812c-.225-1.606-.443-3.212-.665-4.818a1.907,1.907,0,0,0-.846-1.356,2.208,2.208,0,0,0-1.072-.342l-5.538.763a.334.334,0,0,1-.075.044,3.319,3.319,0,0,0-1.786,1.2q-3.711,4.885-7.411,9.777a2.2,2.2,0,0,0-.423,1.047c-.012.088-.026.175-.039.262l.089.647c.011.014.028.027.032.043a2.441,2.441,0,0,0,.939,1.252q2.767,2.087,5.526,4.186a2.255,2.255,0,0,0,3.307-.46,22.482,22.482,0,0,0,1.513-2.1,3.811,3.811,0,0,0-.546-.57c-.626.826-.82,1.28-1.577,2.185a1.51,1.51,0,0,1-2.244.3l-5.539-4.2a1.483,1.483,0,0,1-.317-2.259q3.611-4.766,7.221-9.533a2.776,2.776,0,0,1,1.928-1.131c.744-.1,1.486-.2,2.229-.306.827-.114,1.653-.231,2.481-.341a1.144,1.144,0,0,1,1.3.695,1.675,1.675,0,0,1,.1.4c.216,1.552.425,3.1.645,4.656a2.807,2.807,0,0,1-.572,2.179q-1.143,1.5-2.283,3.009a6.113,6.113,0,0,1,.653.385c.747-.985,1.537-1.983,2.283-2.969A3.453,3.453,0,0,0,1142.824,175.812Z" transform="translate(-1124.969 -169.295)" stroke="#000" stroke-width="0.4"/>
          <path id="Path_22638" data-name="Path 22638" d="M1439.12,245.658a1.939,1.939,0,1,0-2.182-1.669A1.945,1.945,0,0,0,1439.12,245.658Zm-.42-3.071a1.155,1.155,0,1,1-.981,1.3A1.154,1.154,0,0,1,1438.7,242.587Z" transform="translate(-1426.576 -238.159)" stroke="#000" stroke-width="0.4"/>
        </g>
      </g>
    </g>
    <rect id="Rectangle_2134" data-name="Rectangle 2134" width="24" height="24" transform="translate(64 623)" fill="none"/>
  </g>
</svg>
