<svg id="icon" xmlns="http://www.w3.org/2000/svg" width="24" height="24" viewBox="0 0 24 24">
  <rect id="Rectangle_409" data-name="Rectangle 409" width="24" height="24" fill="none"/>
  <g id="Group_992" data-name="Group 992" transform="translate(7 4)">
    <g id="noun_online_pay_mobile_3192251" data-name="noun_online pay mobile_3192251">
      <path id="Path_192" data-name="Path 192" d="M23.28,5H14.96a.961.961,0,0,0-.96.96V20.04a.961.961,0,0,0,.96.96h8.32a.961.961,0,0,0,.96-.96V5.96A.961.961,0,0,0,23.28,5Zm.32,15.04a.32.32,0,0,1-.32.32H14.96a.32.32,0,0,1-.32-.32V5.96a.32.32,0,0,1,.32-.32h8.32a.32.32,0,0,1,.32.32Z" transform="translate(-14 -5)"/>
      <path id="Path_193" data-name="Path 193" d="M26.965,49.188H22.728a.321.321,0,1,0,0,.643h4.238a.321.321,0,0,0,0-.643Z" transform="translate(-19.726 -35.055)"/>
      <path id="Path_194" data-name="Path 194" d="M26.371,9.679h2.653a.433.433,0,1,0,0-.866H26.371a.433.433,0,0,0,0,.866Z" transform="translate(-22.577 -8.312)"/>
      <path id="Path_195" data-name="Path 195" d="M23.761,26.76A2.944,2.944,0,1,0,26.684,29.7,2.937,2.937,0,0,0,23.761,26.76Zm0,5.245a2.3,2.3,0,1,1,2.285-2.3A2.3,2.3,0,0,1,23.761,32.005Z" transform="translate(-18.641 -21.814)"/>
    </g>
    <text id="_" data-name="₹" transform="translate(5 9.5)" font-size="4" font-family="Helvetica"><tspan x="-1" y="0">₹</tspan></text>
  </g>
</svg>
