<svg xmlns="http://www.w3.org/2000/svg" width="24" height="24" viewBox="0 0 24 24">
  <g id="verifier_icon" data-name="verifier icon" transform="translate(-1536.272 -13539.005)">
    <rect id="Rectangle_2223" data-name="Rectangle 2223" width="24" height="24" transform="translate(1536.272 13539.005)" fill="none"/>
    <g id="Group_7896" data-name="Group 7896" transform="translate(1537.753 13540.629)">
      <path id="Path_23116" data-name="Path 23116" d="M1554.953,13566.254a1.5,1.5,0,0,1-.686-.166l-1.694-.869-1.695.869a1.5,1.5,0,0,1-1.944-.521l-1.033-1.6-1.9-.1a1.5,1.5,0,0,1-1.423-1.423l-.1-1.9-1.6-1.033a1.5,1.5,0,0,1-.521-1.944l.868-1.694-.868-1.694a1.5,1.5,0,0,1,.521-1.943l1.6-1.033.1-1.9a1.5,1.5,0,0,1,1.423-1.423l1.9-.1,1.033-1.6a1.5,1.5,0,0,1,1.944-.52l1.694.867,1.694-.867a1.493,1.493,0,0,1,1.943.521l1.034,1.6,1.9.1a1.5,1.5,0,0,1,1.423,1.423l.1,1.9,1.6,1.033a1.5,1.5,0,0,1,.521,1.943l-.868,1.7.868,1.693a1.5,1.5,0,0,1-.521,1.944l-1.6,1.033-.1,1.9a1.5,1.5,0,0,1-1.423,1.423l-1.9.1-1.034,1.6A1.5,1.5,0,0,1,1554.953,13566.254Z" transform="translate(-1542.195 -13545.499)" fill="#22c0e7"/>
      <g id="Group_7899" data-name="Group 7899" transform="translate(-2303.699 -2210.985)">
        <g id="Group_7898" data-name="Group 7898" transform="translate(2309.123 2217.707)">
          <path id="Path_23117" data-name="Path 23117" d="M2341.894,2249.446a.625.625,0,0,1-.442-1.067l6.374-6.374a.625.625,0,0,1,.884.884l-6.374,6.374A.623.623,0,0,1,2341.894,2249.446Z" transform="translate(-2338.455 -2241.822)" fill="#fff"/>
          <path id="Path_23118" data-name="Path 23118" d="M2331.2,2262.972a.623.623,0,0,1-.442-.183l-2.814-2.814a.625.625,0,0,1,.884-.884l2.814,2.814a.625.625,0,0,1-.442,1.067Z" transform="translate(-2327.761 -2255.348)" fill="#fff"/>
        </g>
        <rect id="Rectangle_2224" data-name="Rectangle 2224" width="20" height="20" transform="translate(2304.218 2211.361)" fill="none"/>
      </g>
    </g>
  </g>
</svg>
