<?xml version="1.0" encoding="utf-8"?>
<!-- Generator: Adobe Illustrator 26.0.3, SVG Export Plug-In . SVG Version: 6.00 Build 0)  -->
<svg version="1.1" id="Layer_1" xmlns="http://www.w3.org/2000/svg" xmlns:xlink="http://www.w3.org/1999/xlink" x="0px" y="0px"
	 viewBox="0 0 61 61" style="enable-background:new 0 0 61 61;" xml:space="preserve">
<style type="text/css">
	.st0{fill:#39B54A;}
	.st1{fill:url(#SVGID_1_);}
	.st2{fill:#F7931E;}
	.st3{fill:#FFFFFF;}
	.st4{fill:#A3A3A3;}
	.st5{fill:#949494;}
	.st6{fill:url(#SVGID_00000123408454779725710470000011338648894903878554_);}
	.st7{fill:#828282;}
	.st8{fill:#0087EC;}
	.st9{fill:#FCFCFC;}
	.st10{fill:url(#SVGID_00000072959023336968688970000002845930510626166177_);}
	.st11{fill:url(#SVGID_00000029038491361205795070000007590788959690668697_);}
	.st12{fill:url(#SVGID_00000124161352007445283580000015562994976511445163_);}
	.st13{fill:url(#SVGID_00000101063665154727377430000003210258245766162561_);}
	.st14{fill:url(#SVGID_00000124131607748422346790000006076536995133865903_);}
	.st15{fill:url(#SVGID_00000041286480899284571140000006894565771717927818_);}
	.st16{opacity:0.7;}
	.st17{fill:#999999;}
	.st18{fill:#CC99FF;}
	.st19{fill:#CC66FF;}
	.st20{fill:url(#SVGID_00000152251404441847600480000000676227916712815010_);}
	.st21{fill:#008EEF;}
	.st22{fill:#C7B299;}
	.st23{fill:#0071BC;}
	.st24{fill:url(#SVGID_00000010270175091827988150000007906541356165512608_);}
	.st25{opacity:0.5;fill:#009245;}
</style>
<path class="st0" d="M54.41,13.71c-0.04,0.4-0.12,1.11-0.16,1.81c-0.06,0.9,0.33,1.54,1.14,1.93c0.64,0.31,1.3,0.56,1.92,0.91
	c3.25,1.82,4.39,5.97,2.52,9.19c-0.36,0.63-0.81,1.21-1.24,1.79c-0.55,0.75-0.52,1.49-0.04,2.24c0.23,0.35,0.49,0.69,0.74,1.02
	c2.74,3.74,1.46,8.55-2.77,10.43c-0.4,0.18-0.81,0.34-1.2,0.55c-0.75,0.39-1.15,0.99-1.07,1.86c0.05,0.61,0.13,1.22,0.16,1.83
	c0.19,4.42-3.42,7.67-7.82,7.08c-0.68-0.09-1.38-0.32-2.08,0.04c-0.62,0.31-0.91,0.84-1.16,1.43c-0.49,1.17-1.06,2.29-2.03,3.16
	c-2.25,2-5.47,2.31-8.04,0.74c-0.57-0.35-1.1-0.76-1.64-1.15c-0.72-0.53-1.46-0.51-2.19-0.04c-0.39,0.25-0.75,0.53-1.12,0.8
	c-3.7,2.68-8.5,1.39-10.35-2.79c-0.17-0.38-0.33-0.77-0.52-1.15c-0.45-0.92-1.07-1.19-2.09-1.14c-1.21,0.05-2.47,0.2-3.64-0.04
	c-3.03-0.62-5.15-3.45-5.11-6.56c0.01-0.72,0.11-1.45,0.16-2.17c0.06-0.9-0.33-1.55-1.14-1.93c-0.55-0.26-1.13-0.48-1.67-0.76
	c-3.52-1.83-4.72-6.15-2.65-9.54c0.35-0.57,0.76-1.1,1.15-1.64c0.51-0.71,0.48-1.43,0.03-2.14c-0.24-0.37-0.51-0.72-0.77-1.07
	C-1,24.69,0.22,19.94,4.4,18.01c0.43-0.2,0.88-0.37,1.3-0.6c0.75-0.41,1.12-1.02,1.07-1.92c-0.06-1.2-0.21-2.43-0.01-3.59
	c0.59-3.34,3.83-5.65,7.2-5.3c0.49,0.05,0.99,0.12,1.48,0.17c0.95,0.08,1.61-0.31,2.02-1.18c0.31-0.65,0.58-1.33,0.94-1.96
	c1.85-3.22,5.96-4.31,9.17-2.44c0.61,0.36,1.17,0.8,1.75,1.21c0.78,0.54,1.49,0.57,2.29,0.04c0.43-0.28,0.84-0.61,1.26-0.9
	c3.52-2.45,8.14-1.24,10.01,2.61c0.21,0.43,0.38,0.88,0.59,1.31c0.52,1.1,1.14,1.38,2.35,1.29c1.1-0.08,2.24-0.2,3.3,0
	C52.27,7.35,54.46,10.19,54.41,13.71z"/>
<path class="st25" d="M4.82,28.22c0.89,1.6,0.91,3.21-0.12,4.77c-0.3,0.46-0.66,0.89-0.97,1.35c-1.55,2.29-0.82,5.02,1.67,6.21
	c0.53,0.26,1.09,0.47,1.62,0.74c0.71,0.36,1.28,0.91,1.69,1.55l36.8-33.45c-1.96,0.06-3.5-0.87-4.39-2.73
	c-0.18-0.38-0.34-0.77-0.51-1.15c-1.19-2.64-4.05-3.4-6.39-1.69c-0.34,0.25-0.67,0.51-1.02,0.74c-1.82,1.23-3.71,1.21-5.5-0.07
	c-0.47-0.33-0.92-0.7-1.41-0.99c-1.99-1.18-4.53-0.5-5.65,1.52c-0.28,0.5-0.51,1.03-0.72,1.56c-0.7,1.81-2.72,3.05-4.68,2.81
	c-0.53-0.07-1.06-0.11-1.34-0.14c-2.67-0.22-4.72,1.68-4.69,4.1c0.01,0.69,0.12,1.37,0.17,2.06c0.13,1.92-0.71,3.32-2.34,4.27
	c-0.49,0.29-1.04,0.49-1.56,0.73c-2.58,1.17-3.35,4-1.72,6.31C4.13,27.21,4.53,27.69,4.82,28.22z"/>
<g>
	<path class="st3" d="M26.92,32.85c0,3.74-0.63,6.6-1.9,8.58c-1.27,1.98-3.12,2.97-5.57,2.97c-2.41,0-4.26-0.97-5.54-2.92
		c-1.28-1.94-1.93-4.73-1.96-8.36v-4.98c0-3.78,0.64-6.65,1.92-8.6c1.28-1.96,3.13-2.94,5.55-2.94s4.26,0.97,5.54,2.91
		c1.28,1.94,1.93,4.72,1.96,8.35V32.85z M22.52,27.37c0-2.24-0.25-3.88-0.75-4.9c-0.5-1.02-1.29-1.53-2.35-1.53
		c-1.03,0-1.8,0.49-2.29,1.46c-0.49,0.97-0.75,2.5-0.78,4.57v6.59c0,2.21,0.25,3.85,0.74,4.92s1.28,1.61,2.37,1.61
		c1.08,0,1.85-0.52,2.33-1.54c0.48-1.03,0.72-2.6,0.75-4.72V27.37z"/>
	<path class="st3" d="M28.83,22.18c0-1.66,0.44-3.01,1.32-4.04c0.88-1.04,2.04-1.55,3.47-1.55c1.45,0,2.62,0.51,3.5,1.53
		c0.88,1.02,1.32,2.41,1.32,4.15v1.34c0,1.67-0.44,3.02-1.32,4.03c-0.88,1.02-2.04,1.52-3.47,1.52c-1.44,0-2.6-0.51-3.49-1.53
		c-0.89-1.02-1.33-2.4-1.33-4.13V22.18z M31.75,23.62c0,0.74,0.17,1.34,0.52,1.79s0.81,0.68,1.38,0.68c0.57,0,1.02-0.23,1.35-0.69
		c0.33-0.46,0.5-1.07,0.5-1.84v-1.38c0-0.74-0.17-1.34-0.5-1.8c-0.33-0.46-0.8-0.69-1.39-0.69c-0.56,0-1.01,0.23-1.35,0.68
		c-0.34,0.45-0.52,1.08-0.52,1.89V23.62z M34.52,42.01l-2.15-1.41l10.82-21.15l2.15,1.41L34.52,42.01z M39.42,37.4
		c0-1.67,0.45-3.02,1.34-4.04c0.89-1.02,2.05-1.53,3.47-1.53c1.44,0,2.6,0.51,3.49,1.51c0.89,1.01,1.33,2.4,1.33,4.17v1.34
		c0,1.66-0.44,3-1.31,4.02c-0.87,1.02-2.03,1.53-3.48,1.53c-1.46,0-2.63-0.51-3.51-1.54c-0.88-1.03-1.32-2.39-1.32-4.09V37.4z
		 M42.34,38.85c0,0.68,0.18,1.26,0.55,1.75s0.82,0.72,1.37,0.72c1.24,0,1.86-0.84,1.86-2.51V37.4c0-0.74-0.17-1.34-0.52-1.79
		c-0.34-0.45-0.8-0.68-1.37-0.68c-0.57,0-1.02,0.23-1.37,0.68c-0.34,0.45-0.52,1.07-0.52,1.85V38.85z"/>
</g>
</svg>
